<svg xmlns="http://www.w3.org/2000/svg" xmlns:xlink="http://www.w3.org/1999/xlink" width="2048" height="512"><defs><linearGradient id="c"><stop offset="0" stop-color="#f44336"/><stop offset="1" stop-color="#ff9800" stop-opacity="0"/></linearGradient><linearGradient id="b"><stop offset="0" stop-color="#f44336"/><stop offset="1" stop-color="#ff9800"/></linearGradient><linearGradient id="a"><stop offset="0"/><stop offset="1" stop-color="#312424"/></linearGradient><linearGradient x1="0" x2="0" y1="0" y2="512" id="e" gradientUnits="userSpaceOnUse" gradientTransform="scale(2 1)"><stop offset="0%" stop-color="#2196f3"/><stop offset="100%" stop-color="#009688"/></linearGradient><linearGradient x1="41.559" x2="41.559" y1="24.67" y2="298.414" id="f" gradientTransform="matrix(.87127 0 0 1.14776 256 0)" gradientUnits="userSpaceOnUse"><stop offset="0%" stop-color="#4caf50"/><stop offset="100%" stop-color="#795548"/></linearGradient><linearGradient x1="246.425" x2="246.425" y1="89.622" y2="319.731" id="g" gradientTransform="matrix(1.01508 0 0 .98514 256 0)" gradientUnits="userSpaceOnUse"><stop offset="0%" stop-color="#4caf50"/><stop offset="100%" stop-color="#795548"/></linearGradient><linearGradient x1="15.368" x2="15.368" y1="665.975" y2="888.212" id="h" gradientTransform="matrix(2.02246 0 0 .49445 256 0)" gradientUnits="userSpaceOnUse"><stop offset="0%" stop-color="#ffecb3"/><stop offset="100%" stop-color="#d7ccc8"/></linearGradient><linearGradient xlink:href="#a" id="d" x1="1478.759" y1="510.665" x2="1478.759" y2="-.686" gradientUnits="userSpaceOnUse"/><radialGradient xlink:href="#b" id="i" cx="1535.991" cy="373.073" fx="1535.991" fy="373.073" r="62.461" gradientTransform="matrix(1 0 0 1.5089 0 -229.858)" gradientUnits="userSpaceOnUse"/><radialGradient xlink:href="#c" id="j" cx="1538.501" cy="353.362" fx="1538.501" fy="353.362" r="470.583" gradientTransform="matrix(1 0 0 .61803 0 94.972)" gradientUnits="userSpaceOnUse"/></defs><path d="M919.91 0H2048v512H919.91z" fill="url(#d)"/><path d="M0 0h1088L960 512H0z" fill="url(#e)"/><path d="M336.87 28.32c-10.027.162-20.065 3.47-29.706 11.055 28.096-7.917 64.844 21.295 77.418 55.125-33.088 2.865-77.492 21.193-92.373 60.79 45.182-35.396 77.437-49.508 97.192-28.644-20.36 20.232-37.693 49.855-34.722 77.06 8.497-19.502 30.642-47.206 53.763-56.956-.017.246-.03.493-.037.74 0 9.698 7.86 17.56 17.56 17.56a17.563 17.563 0 0014.003-7.005c43.084 62.306 46.703 103.963 46.99 171.13 1.22 3.765 3.31 13.657 8.712 13.323 2.138-.15 7.886-4.198 9.24-14.906-.658-72.08-6.662-120.87-59.648-192.89.088-.437.17-.88.244-1.335 12.77-25.514 63.138-12.534 85.207-7.342-19.952-24.276-63.064-33.383-91.26-30.154 6.987-23.99 41.58-35.786 79.522-39.88-35.283-14.532-83.623-2.6-108.498 18.582-18.92-23.63-46.22-46.692-73.61-46.252z" fill="url(#f)"/><path d="M572.444 88.3c-14.417-.27-30.606 5.297-47.838 19.68 55.587-9.758 66.225 13.936 65.26 41.247-27.864-3.965-65.48 2.288-83.724 24.488 15.247-3.588 43.993-5.876 64.527 1.6a17.554 17.554 0 00-3.293 10.21c0 9.697 7.86 17.558 17.557 17.56a17.668 17.668 0 003.447-.36c-29.184 40.13-43.586 77.41-49.65 109.765a287.904 287.904 0 0117.78 2.49c6.267-33.1 22.157-72.1 56.822-115.246a17.553 17.553 0 0013.19 6.002 17.558 17.558 0 0017.283-14.578c24.362 2.404 52.773 19.613 66.91 34.192-6.48-25.342-31.1-46.236-56.117-58.325 20.007-20.112 64.557-27.84 85.123-26.85-48.212-22.24-87.34-20.276-110.062-9.238-9.94-21.647-30.544-42.133-57.213-42.636z" fill="url(#g)"/><path d="M17.314 327v18h356.92c14.542-6.786 29.8-12.894 45.434-18zm587.376 0c15.736 5.106 31.102 11.213 45.736 18h333.322l4.287-18z" fill="#3f51b5"/><path d="M522.832 329.29c-1.966 17.012-11.84 30.178-25.898 31.165-17.093-1.086-24.48-13.605-27.6-27.437-33.38 5.94-67.274 18.015-97.31 33.033-36.807 18.405-67.758 41.478-84.942 61.233 4.887 1.483 10.322 3.123 17 4.844 16.234 4.183 36.103 7.82 47.176 6.904 8.815-.73 18.05-5.583 28.39-11.27 10.34-5.687 21.82-12.22 35.834-13.026 19-1.092 36.012 5.71 51.84 12.04 15.828 6.332 30.557 12.207 44.69 12.226 8.875.012 18.36-3.293 28.83-7.22 10.47-3.925 21.902-8.468 34.943-8.778 30.896-.735 56.652 15.618 80.36 16 14.596.235 38.53-3.61 58.222-7.625 8.712-1.776 16.05-3.47 22.18-4.91-16.61-19.392-47.196-42.19-83.774-60.38-39.91-19.846-86.81-34.618-129.94-36.798z" fill="url(#h)"/><path d="M425.064 438.95c-17.693.86-35.45 8.61-51.22 16.005-9.012 4.226-17.343 8.447-24.168 11.486C342.85 469.48 337.11 471 336 471c-25.66 0-48.943-12.707-62-21.492v21.472c15.352 8.857 37.207 18.02 62 18.02 7.268 0 13.51-2.78 20.998-6.115 7.488-3.335 15.8-7.56 24.488-11.633 17.376-8.147 36.382-15.234 49.875-14.275 8.73.62 17.46 6.266 27.45 13.51 9.993 7.246 21.062 16.013 35.75 18.396 21.05 3.416 40.977-2.01 59.72-7.215 18.745-5.204 36.403-10.194 52.91-8.705 6 .54 11.362 3.603 18.867 7.564C633.562 484.487 643.252 489 656 489c14.94 0 38.64-4.13 59.537-8.164 15.083-2.91 28.2-5.772 34.463-7.166v-18.39l-.012-.05c0-.002-17.313 3.968-37.863 7.934S667.277 471 656 471c-8.694 0-14.606-2.73-21.54-6.39-6.936-3.66-14.852-8.6-25.65-9.573-21.053-1.898-40.784 4.134-59.343 9.287-18.56 5.153-35.852 9.418-52.026 6.793-8.856-1.437-17.89-7.824-28.063-15.2-10.174-7.378-21.676-15.823-36.738-16.894-2.6-.177-5.16-.19-7.576-.074z" class="selected" fill="#64ffda"/><path d="M313.29 53.867v17.031h28.163v8.907H313.29V100h-11.523V44.96h40.586v8.907zm47.343 46.914q-6.133 0-9.57-3.32-3.438-3.36-3.438-9.414 0-6.563 4.258-10 4.297-3.438 12.422-3.516l9.101-.156v-2.148q0-4.141-1.445-6.133-1.445-2.031-4.727-2.031-3.046 0-4.492 1.406-1.406 1.367-1.758 4.57l-11.445-.547q1.055-6.172 5.625-9.336 4.61-3.203 12.54-3.203 8.007 0 12.343 3.945 4.336 3.946 4.336 11.211V87.5q0 3.555.781 4.922.82 1.328 2.695 1.328 1.25 0 2.422-.234v5.937q-.976.234-1.758.43-.78.195-1.562.312-.781.118-1.68.196-.86.078-2.031.078-4.14 0-6.133-2.032-1.953-2.03-2.344-5.976h-.234q-4.61 8.32-13.906 8.32zm12.773-20.351l-5.625.078q-3.828.156-5.43.86-1.601.663-2.46 2.07-.82 1.406-.82 3.75 0 3.007 1.366 4.492 1.407 1.445 3.711 1.445 2.579 0 4.688-1.406 2.148-1.406 3.36-3.867 1.21-2.5 1.21-5.274zm61.954-1.72q0 10.47-4.22 16.29-4.18 5.781-11.992 5.781-4.492 0-7.773-1.953-3.281-1.953-5.04-5.625h-.077q0 1.367-.195 3.75-.157 2.383-.352 3.047h-10.664q.312-3.633.312-9.648v-48.32h10.977v16.171l-.156 6.875h.156q3.71-8.125 13.516-8.125 7.5 0 11.484 5.703 4.023 5.664 4.023 16.055zm-11.446 0q0-7.187-2.11-10.663-2.109-3.477-6.523-3.477-4.453 0-6.797 3.75-2.304 3.711-2.304 10.743 0 6.718 2.265 10.468 2.305 3.75 6.758 3.75 8.711 0 8.711-14.57zM444.227 100V67.656q0-3.476-.118-5.781-.078-2.344-.195-4.14h10.469q.117.703.312 4.296.196 3.555.196 4.727h.156q1.601-4.453 2.851-6.25 1.25-1.836 2.97-2.696 1.718-.898 4.296-.898 2.11 0 3.399.586v9.18q-2.657-.586-4.688-.586-4.102 0-6.406 3.32-2.266 3.32-2.266 9.844V100zm31.133-49.883v-8.086h10.976v8.086zm0 49.883V57.734h10.976V100zm39.843.781q-9.61 0-14.844-5.703-5.234-5.742-5.234-15.976 0-10.47 5.273-16.29 5.274-5.859 14.961-5.859 7.461 0 12.344 3.75 4.883 3.75 6.133 10.352l-11.055.547q-.468-3.243-2.343-5.157-1.875-1.953-5.313-1.953-8.477 0-8.477 14.18 0 14.61 8.633 14.61 3.125 0 5.235-1.954 2.109-1.992 2.617-5.898l11.015.507q-.585 4.336-3.125 7.735-2.5 3.398-6.601 5.273-4.102 1.836-9.219 1.836zm36.641 0q-6.133 0-9.57-3.32-3.438-3.36-3.438-9.414 0-6.563 4.258-10 4.297-3.438 12.422-3.516l9.101-.156v-2.148q0-4.141-1.445-6.133-1.445-2.031-4.727-2.031-3.047 0-4.492 1.406-1.406 1.367-1.758 4.57l-11.445-.547q1.055-6.172 5.625-9.336 4.61-3.203 12.54-3.203 8.007 0 12.343 3.945 4.336 3.946 4.336 11.211V87.5q0 3.555.781 4.922.82 1.328 2.695 1.328 1.25 0 2.422-.234v5.937q-.976.234-1.758.43-.78.195-1.562.312-.781.118-1.68.196-.86.078-2.031.078-4.14 0-6.133-2.032-1.953-2.03-2.344-5.976h-.234q-4.61 8.32-13.906 8.32zm12.773-20.351l-5.625.078q-3.828.156-5.43.86-1.601.663-2.46 2.07-.82 1.406-.82 3.75 0 3.007 1.366 4.492 1.407 1.445 3.711 1.445 2.578 0 4.688-1.406 2.148-1.406 3.36-3.867 1.21-2.5 1.21-5.274zm32.773 20.273q-4.843 0-7.46-2.617-2.617-2.656-2.617-8.008V65.156h-5.352v-7.422h5.898l3.438-9.922h6.875v9.922h8.008v7.422h-8.008V87.11q0 3.086 1.172 4.57 1.172 1.446 3.633 1.446 1.289 0 3.671-.547v6.797q-4.062 1.328-9.257 1.328zm15.82-50.586v-8.086h10.978v8.086zm0 49.883V57.734h10.977V100zm62.384-21.172q0 10.274-5.703 16.133-5.703 5.82-15.782 5.82-9.882 0-15.507-5.86-5.625-5.859-5.625-16.093 0-10.195 5.625-16.016 5.625-5.859 15.742-5.859 10.351 0 15.781 5.664 5.469 5.625 5.469 16.211zm-11.485 0q0-7.539-2.46-10.937-2.461-3.399-7.149-3.399-10 0-10 14.336 0 7.07 2.422 10.781 2.46 3.672 7.07 3.672 10.117 0 10.117-14.453zM711.688 100V76.29q0-11.134-7.54-11.134-3.984 0-6.445 3.438-2.422 3.398-2.422 8.75V100h-10.976V67.187q0-3.398-.117-5.546-.079-2.188-.196-3.907h10.469q.117.743.312 3.985.196 3.203.196 4.414h.156q2.227-4.844 5.586-7.031 3.36-2.188 8.008-2.188 6.718 0 10.312 4.14 3.594 4.141 3.594 12.11V100z" aria-label="Fabrication" font-weight="700" font-size="80" font-family="Arial,Helvetica,sans-serif" text-anchor="middle"/><path d="M1625.833 257.05v66.739h25.669v-66.74zm-177.972-41.07v148.88h176.26v-25.67h-13.69v-97.542h13.69V215.98zm-15.401-15.402h207.063v41.07h27.38v97.542h-27.38v41.07H1432.46zm41.755-208.504l-11.466 140.053h146.484L1597.768-7.926zm-68.023 155.455L1380.112 447h311.776l-26.097-299.471zm67.338 82.14h124.923V325.5H1473.53z" fill="#546e7a"/><path d="M1537.018 238.825c-5.561 18.824-20.963 37.305-11.636 56.557-15.23-8.129-17.284-21.476-20.022-34.739-1.883 13.263-7.958 26.354-5.818 38.846-5.391-3.936-9.926-9.326-15.573-15.401 5.99 24.128 6.76 30.631 27.21 32h44.064c27.466-3.08 22.931-18.225 35.081-32.685-10.867.342-16.171 3.85-22.075 10.524 8.813-16-1.284-16.171-2.31-29.348-4.364 8.385-14.46 17.712-19.937 15.915-7.273-2.225-7.957-26.268-8.984-41.67zm46.033 161.115h15.402v27.38h-15.402zm-54.76 0h15.401v27.38h-15.401zm-54.76 0h15.4v27.38h-15.4z" fill="url(#i)"/><ellipse cx="1538.501" cy="313.362" rx="470.583" ry="290.836" opacity=".528" fill="url(#j)" paint-order="stroke fill markers"/><g style="line-height:125%;-inkscape-font-specification:'Fira Sans'"><path d="M1369.961 494.014h10.387v-22.972h17.286v-9.932h-17.286v-13.192h18.12v-9.932h-28.507zM1432.737 437c-16.68 0-29.568 12.661-29.568 29.038 0 16.225 13.04 28.962 29.493 28.962 16.3 0 28.886-12.661 28.886-28.962 0-16.15-12.813-29.038-28.81-29.038zm-.151 10.008c10.387 0 18.5 8.34 18.5 19.106 0 10.842-7.886 18.878-18.5 18.878-10.615 0-18.954-8.34-18.954-18.954 0-10.842 8.188-19.03 18.954-19.03zm37.15 47.006h10.387v-21.456l14.708 21.456h12.814l-15.164-20.698c4.322-1.061 6.445-2.047 8.87-4.094 3.867-3.26 5.763-7.657 5.763-13.268 0-5.762-2.047-10.538-5.914-13.798-3.64-3.109-7.657-4.17-15.315-4.17h-16.149zm10.387-29.265v-16.831h4.625c4.852 0 7.506.53 9.174 1.97 1.82 1.441 2.729 3.64 2.729 6.37 0 5.913-3.412 8.491-11.448 8.491zm54.133 10.387h23.2c-2.957 6.217-9.022 9.856-16.452 9.856-10.993 0-19.41-8.188-19.41-18.954 0-4.852 2.048-10.16 5.232-13.571 3.26-3.488 8.188-5.46 13.571-5.46 6.52 0 11.98 2.654 15.391 7.43h12.207c-3.64-10.083-15.164-17.437-27.37-17.437-16.452 0-29.493 12.737-29.493 28.886 0 16.453 13.268 29.114 30.479 29.114 8.491 0 15.694-2.957 21.228-8.643 5.156-5.383 8.037-12.358 8.037-19.56v-1.366h-36.62zm43.444 18.878h30.099v-9.932h-19.713v-13.04h18.879v-9.932h-18.879v-13.192h19.713v-9.932h-30.1zm39.424 0h10.387v-21.456l14.708 21.456h12.813l-15.163-20.698c4.322-1.061 6.445-2.047 8.87-4.094 3.867-3.26 5.763-7.657 5.763-13.268 0-5.762-2.047-10.538-5.914-13.798-3.64-3.109-7.657-4.17-15.315-4.17h-16.15zm10.387-29.265v-16.831h4.625c4.852 0 7.506.53 9.174 1.97 1.82 1.441 2.729 3.64 2.729 6.37 0 5.913-3.412 8.491-11.448 8.491zm45.717 29.265h10.387v-20.698l18.424-35.33h-11.221l-12.434 25.777-12.358-25.777h-11.221l18.423 35.33z" style="-inkscape-font-specification:'URW Gothic Semi-Bold'" aria-label="FORGERY" font-weight="600" font-size="75.817" font-family="URW Gothic" letter-spacing="0" word-spacing="0" fill="#fff"/></g></svg>